<svg id="Layer_1" enable-background="new 0 0 512 512" height="512" viewBox="0 0 512 512" width="512" xmlns="http://www.w3.org/2000/svg"><g><path d="m400.378 124.806h111.622l-126.612-124.806v109.806c0 8.271 6.724 15 14.99 15z"/><path d="m355.388 109.806v-109.806h-280.557c-8.284 0-15 6.716-15 15v101.007h167.552c45.421 0 82.373 36.952 82.373 82.373v174.09c0 45.42-36.952 82.373-82.373 82.373h-167.551v42.157c0 8.284 6.716 15 15 15h422.168c8.284 0 15-6.716 15-15v-342.194h-111.622c-24.808 0-44.99-20.187-44.99-45z"/><path d="m280.757 372.47v-174.09c0-29.477-23.896-53.373-53.373-53.373h-174.011c-29.477 0-53.373 23.896-53.373 53.373v174.09c0 29.477 23.896 53.373 53.373 53.373h174.011c29.477 0 53.373-23.896 53.373-53.373zm-83.539-102.503c-5.857 5.858-15.355 5.858-21.213 0l-20.627-20.627v108.937c-.793 19.902-29.215 19.887-30 0v-108.936l-20.626 20.626c-5.857 5.858-15.355 5.858-21.213 0s-5.858-15.355 0-21.213l46.232-46.233c5.585-5.811 15.628-5.81 21.213 0l46.233 46.233c5.859 5.858 5.859 15.355.001 21.213z"/></g></svg>